<svg width="10" height="10" viewBox="0 0 10 10" fill="none" xmlns="http://www.w3.org/2000/svg">
<path d="M3.88889 0H0.555556C0.408213 0 0.266905 0.0585316 0.162718 0.162718C0.0585316 0.266905 0 0.408213 0 0.555556V3.88889C0 4.03623 0.0585316 4.17754 0.162718 4.28173C0.266905 4.38591 0.408213 4.44444 0.555556 4.44444H3.88889C4.03623 4.44444 4.17754 4.38591 4.28173 4.28173C4.38591 4.17754 4.44444 4.03623 4.44444 3.88889V0.555556C4.44444 0.408213 4.38591 0.266905 4.28173 0.162718C4.17754 0.0585316 4.03623 0 3.88889 0V0ZM9.44444 5.55556H6.11111C5.96377 5.55556 5.82246 5.61409 5.71827 5.71827C5.61409 5.82246 5.55556 5.96377 5.55556 6.11111V9.44444C5.55556 9.59179 5.61409 9.7331 5.71827 9.83728C5.82246 9.94147 5.96377 10 6.11111 10H9.44444C9.59179 10 9.7331 9.94147 9.83728 9.83728C9.94147 9.7331 10 9.59179 10 9.44444V6.11111C10 5.96377 9.94147 5.82246 9.83728 5.71827C9.7331 5.61409 9.59179 5.55556 9.44444 5.55556ZM7.77778 0C6.55222 0 5.55556 0.996667 5.55556 2.22222C5.55556 3.44778 6.55222 4.44444 7.77778 4.44444C9.00333 4.44444 10 3.44778 10 2.22222C10 0.996667 9.00333 0 7.77778 0ZM2.22222 5.55556C0.996667 5.55556 0 6.55222 0 7.77778C0 9.00333 0.996667 10 2.22222 10C3.44778 10 4.44444 9.00333 4.44444 7.77778C4.44444 6.55222 3.44778 5.55556 2.22222 5.55556Z" fill="black"/>
</svg>
