<svg width="25" height="25" viewBox="0 0 25 25" fill="none" xmlns="http://www.w3.org/2000/svg">
<path d="M0 0V1.5572C0.00235051 1.74057 0.0698104 1.91547 0.187687 2.04382L9.2968 12.2768C9.41467 12.4052 9.48213 12.5801 9.48448 12.7635V22.343C9.48425 22.4733 9.51697 22.6011 9.57892 22.7117C9.64086 22.8223 9.72954 22.9114 9.83483 22.9687L14.7773 24.9291C14.8728 24.9811 14.9786 25.0052 15.0848 24.9991C15.1909 24.993 15.294 24.9569 15.3841 24.8943C15.4743 24.8317 15.5486 24.7446 15.6001 24.6412C15.6515 24.5378 15.6784 24.4216 15.6782 24.3034V12.6383C15.6955 12.4504 15.7759 12.2767 15.9034 12.1517L24.8123 2.07163C24.9302 1.94328 24.9976 1.76837 25 1.58501V0H0Z" fill="white"/>
</svg>
