<svg width="20" height="21" viewBox="0 0 20 21" fill="none" xmlns="http://www.w3.org/2000/svg">
<path d="M18.2024 9.16814H4.06514C4.06267 9.16814 4.06021 9.16208 4.06267 9.16208L9.39525 2.86521C9.82649 2.35661 9.84128 1.51199 9.42482 0.982201C9.01083 0.452416 8.32331 0.434252 7.89208 0.945873L0.632475 9.51628C0.420552 9.76755 0.299805 10.1157 0.299805 10.476C0.299805 10.8392 0.420552 11.1843 0.632475 11.4356L7.9315 20.0545C8.14096 20.3027 8.41203 20.4268 8.68309 20.4268C8.96894 20.4268 9.25233 20.2906 9.46425 20.0181C9.87824 19.4884 9.86592 18.6437 9.43468 18.1351L4.1021 11.8383C4.09964 11.8352 4.1021 11.8322 4.10456 11.8322H18.227C18.8037 11.8322 19.2743 11.2782 19.3088 10.5819C19.3458 9.80993 18.8308 9.16814 18.2024 9.16814Z" fill="white"/>
</svg>
