<svg width="21" height="21" viewBox="0 0 21 21" fill="none" xmlns="http://www.w3.org/2000/svg">
<path d="M0.00418061 20.8333L1.41251 15.6583C0.484533 14.0676 -0.00301108 12.2583 1.39919e-05 10.4167C1.39919e-05 4.66354 4.66356 0 10.4167 0C16.1698 0 20.8333 4.66354 20.8333 10.4167C20.8333 16.1698 16.1698 20.8333 10.4167 20.8333C8.57582 20.8363 6.76736 20.3491 5.1771 19.4219L0.00418061 20.8333ZM6.65731 5.52917C6.52279 5.53752 6.39134 5.57295 6.27085 5.63333C6.15785 5.69732 6.0547 5.77732 5.9646 5.87083C5.8396 5.98854 5.76876 6.09062 5.69272 6.18958C5.30773 6.69062 5.10065 7.30564 5.10418 7.9375C5.10626 8.44792 5.2396 8.94479 5.44793 9.40937C5.87397 10.349 6.57501 11.3437 7.50106 12.2656C7.72397 12.4875 7.94168 12.7104 8.17605 12.9177C9.32542 13.9296 10.6951 14.6594 12.1761 15.049L12.7688 15.1396C12.9615 15.15 13.1542 15.1354 13.3479 15.126C13.6513 15.1104 13.9475 15.0282 14.2156 14.8854C14.352 14.8152 14.4852 14.7387 14.6146 14.6562C14.6146 14.6562 14.6594 14.6271 14.7448 14.5625C14.8854 14.4583 14.9719 14.3844 15.0886 14.2625C15.175 14.1729 15.25 14.0677 15.3073 13.9479C15.3886 13.7781 15.4698 13.4542 15.5031 13.1844C15.5281 12.9781 15.5208 12.8656 15.5177 12.7958C15.5136 12.6844 15.4208 12.5687 15.3198 12.5198L14.7136 12.2479C14.7136 12.2479 13.8073 11.8531 13.2542 11.601C13.1959 11.5756 13.1334 11.5611 13.0698 11.5583C12.9985 11.551 12.9265 11.559 12.8586 11.5819C12.7907 11.6047 12.7284 11.6418 12.6761 11.6906V11.6885C12.6708 11.6885 12.6011 11.7479 11.8479 12.6604C11.8047 12.7185 11.7452 12.7624 11.6769 12.7865C11.6086 12.8106 11.5347 12.8139 11.4646 12.7958C11.3967 12.7777 11.3302 12.7547 11.2656 12.7271C11.1365 12.6729 11.0917 12.6521 11.0031 12.6135L10.9979 12.6115C10.402 12.3513 9.85025 11.9998 9.36251 11.5698C9.23126 11.4552 9.10939 11.3302 8.98439 11.2094C8.57457 10.8169 8.21742 10.3729 7.92189 9.88854L7.86043 9.78958C7.81629 9.72309 7.7806 9.65136 7.75418 9.57604C7.7146 9.42292 7.81772 9.3 7.81772 9.3C7.81772 9.3 8.07085 9.02292 8.18856 8.87292C8.28656 8.74825 8.37801 8.61856 8.46251 8.48438C8.58543 8.28646 8.62397 8.08333 8.55939 7.92604C8.26772 7.21354 7.96564 6.50417 7.65522 5.8C7.59376 5.66042 7.41147 5.56042 7.24585 5.54062C7.1896 5.53437 7.13335 5.52812 7.0771 5.52396C6.93721 5.51701 6.79703 5.5184 6.65731 5.52812V5.52917Z" fill="#92E3A9"/>
</svg>
